<svg aria-hidden="true" focusable="false" data-prefix="fab" data-icon="facebook-square" class="svg-inline--fa fa-facebook-square fa-w-14" role="img" xmlns="http://www.w3.org/2000/svg" viewBox="0 0 448 512">
    <defs>
        <linearGradient id="g1" x1="0%" y1="0%" x2="0%" y2="100%">
            <stop offset="5%" stop-color="#BC9CFF" />
            <stop offset="95%" stop-color="#8BA4F9" />
        </lineargradient>
        <pattern id="img1" patternUnits="userSpaceOnUse" width="24" height="24">
          <image xlink:href="https://www.lifegate.it/app/uploads/mare-seashepherd2.jpg" x="0" y="0" width="24" height="24"/>
        </pattern>
    </defs>
    <path fill="url(#g1)" d="M400 32H48A48 48 0 0 0 0 80v352a48 48 0 0 0 48 48h137.25V327.69h-63V256h63v-54.64c0-62.15 37-96.48 93.67-96.48 27.14 0 55.52 4.84 55.52 4.84v61h-31.27c-30.81 0-40.42 19.12-40.42 38.73V256h68.78l-11 71.69h-57.78V480H400a48 48 0 0 0 48-48V80a48 48 0 0 0-48-48z">
    </path>
</svg>